<svg width="65" height="64" viewBox="0 0 65 64" fill="none" xmlns="http://www.w3.org/2000/svg">
<path d="M12.5 0.5H52.5C58.8513 0.5 64 5.64873 64 12V52C64 58.3513 58.8513 63.5 52.5 63.5H12.5C6.14873 63.5 1 58.3513 1 52V12C1 5.64873 6.14873 0.5 12.5 0.5Z" fill="white"/>
<path d="M12.5 0.5H52.5C58.8513 0.5 64 5.64873 64 12V52C64 58.3513 58.8513 63.5 52.5 63.5H12.5C6.14873 63.5 1 58.3513 1 52V12C1 5.64873 6.14873 0.5 12.5 0.5Z" stroke="#EAECF0"/>
<path d="M35.9855 23.2035H45.9084C46.6954 23.2035 47.0888 23.2035 47.3189 23.369C47.5197 23.5133 47.6504 23.7355 47.6791 23.9811C47.712 24.2626 47.5209 24.6066 47.1387 25.2944L44.7706 29.5571C44.632 29.8065 44.5627 29.9313 44.5356 30.0634C44.5115 30.1803 44.5115 30.3009 44.5356 30.4178C44.5627 30.5499 44.632 30.6746 44.7706 30.9241L47.1387 35.1867C47.5209 35.8746 47.712 36.2185 47.6791 36.5C47.6504 36.7456 47.5197 36.9678 47.3189 37.1122C47.0888 37.2776 46.6954 37.2776 45.9084 37.2776H33.5226C32.5373 37.2776 32.0447 37.2776 31.6683 37.0859C31.3373 36.9172 31.0682 36.6481 30.8995 36.317C30.7078 35.9407 30.7078 35.4481 30.7078 34.4628V30.2406M24.5504 47.8332L17.5133 19.685M20.1523 30.2406H33.1707C34.156 30.2406 34.6486 30.2406 35.025 30.0488C35.356 29.8802 35.6251 29.611 35.7938 29.28C35.9855 28.9037 35.9855 28.411 35.9855 27.4258V18.9813C35.9855 17.996 35.9855 17.5034 35.7938 17.1271C35.6251 16.7961 35.356 16.5269 35.025 16.3583C34.6486 16.1665 34.156 16.1665 33.1707 16.1665H20.2388C19.0099 16.1665 18.3955 16.1665 17.9752 16.4211C17.6069 16.6443 17.3332 16.9948 17.206 17.4063C17.061 17.8758 17.21 18.4719 17.508 19.664L20.1523 30.2406Z" stroke="#344054" stroke-width="2" stroke-linecap="round" stroke-linejoin="round"/>
</svg>
