<svg width="183" height="52" viewBox="0 0 183 52" fill="none" xmlns="http://www.w3.org/2000/svg">
<g clip-path="url(#clip0_28474_3078)">
<path d="M3.63333 3.83317C1.66666 4.89983 1.66666 4.7665 1.66666 25.9998C1.66666 47.2665 1.63333 46.8998 3.63333 48.0998C4.49999 48.5998 5.86666 48.6665 16.3333 48.6665H28.0333L27.2667 47.6998C26.8333 47.1998 25.5667 45.6998 24.4333 44.3665C22.4667 42.1332 22.3333 41.8665 22.3333 40.3332C22.3333 38.8998 22.5 38.4998 23.5667 37.3332L24.7667 35.9665L23.6 34.7332C21.7667 32.8332 20.9333 30.8665 20.9 28.4998C20.9 23.8665 24.4333 20.3332 29.1 20.3332C31.3667 20.3332 32.9333 20.9332 34.9 22.5332L36.3667 23.7332L37.6667 22.5332C39 21.3332 40.7667 20.7665 42 21.1665C42.4 21.2998 44.4333 22.7998 46.5333 24.5332L50.3333 27.6665V17.1332C50.3333 5.5665 50.2667 5.03317 48.3667 3.89983C47.4667 3.3665 45.5667 3.33317 25.9333 3.33317C8.03333 3.3665 4.36666 3.43317 3.63333 3.83317Z" fill="#D02F28"/>
<path d="M28.0999 24.5665C27.0333 24.7665 25.4333 26.4665 25.1666 27.6665C24.8666 29.0331 25.4666 30.6998 26.6999 31.8331L27.6999 32.7998L30.5666 29.9331L33.4666 27.0331L32.4999 26.1331C31.5666 25.2665 29.6333 24.2665 29.0999 24.3665C28.9666 24.3998 28.4999 24.4998 28.0999 24.5665Z" fill="#D02F28"/>
<circle cx="31.6875" cy="10.5625" r="2.4375" fill="#BC2620"/>
<circle cx="13.8125" cy="17.0625" r="7.3125" fill="#BC2620"/>
<circle cx="8.9375" cy="38.1875" r="4.0625" fill="#BC2620"/>
</g>
<path d="M172.078 47.7862V34.4972H173.799V38.1169L173.622 37.484C173.993 36.4715 174.618 35.7037 175.495 35.1806C176.373 34.6406 177.461 34.3706 178.761 34.3706V36.1172C178.693 36.1172 178.626 36.1172 178.558 36.1172C178.491 36.1003 178.423 36.0919 178.356 36.0919C176.955 36.0919 175.858 36.5222 175.065 37.3828C174.272 38.2265 173.875 39.4331 173.875 41.0025V47.7862H172.078Z" fill="black"/>
<path d="M162.446 47.9123C161.062 47.9123 159.847 47.6254 158.801 47.0517C157.755 46.4611 156.937 45.6595 156.346 44.647C155.755 43.6176 155.46 42.4448 155.46 41.1286C155.46 39.8123 155.738 38.6479 156.295 37.6354C156.869 36.6229 157.645 35.8298 158.624 35.2561C159.62 34.6654 160.733 34.3701 161.965 34.3701C163.214 34.3701 164.319 34.657 165.281 35.2307C166.26 35.7876 167.028 36.5807 167.585 37.6101C168.142 38.6226 168.42 39.7954 168.42 41.1286C168.42 41.2129 168.412 41.3057 168.395 41.407C168.395 41.4914 168.395 41.5842 168.395 41.6854H156.827V40.3439H167.433L166.724 40.8754C166.724 39.9136 166.513 39.0614 166.091 38.3189C165.686 37.5595 165.129 36.9689 164.421 36.547C163.712 36.1251 162.893 35.9142 161.965 35.9142C161.054 35.9142 160.236 36.1251 159.51 36.547C158.784 36.9689 158.219 37.5595 157.814 38.3189C157.409 39.0782 157.207 39.9473 157.207 40.9261V41.2045C157.207 42.217 157.426 43.1114 157.865 43.8876C158.32 44.647 158.945 45.2461 159.738 45.6848C160.548 46.1067 161.467 46.3176 162.497 46.3176C163.307 46.3176 164.058 46.1742 164.75 45.8873C165.458 45.6004 166.066 45.1617 166.572 44.5711L167.585 45.7354C166.994 46.4442 166.252 46.9842 165.357 47.3554C164.48 47.7267 163.509 47.9123 162.446 47.9123Z" fill="black"/>
<path d="M151.19 47.9124C149.941 47.9124 148.979 47.5749 148.304 46.8999C147.629 46.2249 147.292 45.2715 147.292 44.0396V31.5605H149.089V43.9384C149.089 44.7146 149.283 45.3137 149.671 45.7355C150.076 46.1574 150.65 46.3684 151.392 46.3684C152.186 46.3684 152.844 46.1405 153.367 45.6849L154 46.9759C153.645 47.2965 153.215 47.5327 152.709 47.6846C152.219 47.8365 151.713 47.9124 151.19 47.9124ZM144.912 35.9902V34.4968H153.139V35.9902H144.912Z" fill="black"/>
<path d="M137.356 47.9128C135.973 47.9128 134.758 47.6259 133.711 47.0522C132.665 46.4615 131.847 45.66 131.256 44.6475C130.665 43.6181 130.37 42.4453 130.37 41.129C130.37 39.8128 130.649 38.6484 131.205 37.6359C131.779 36.6234 132.555 35.8303 133.534 35.2565C134.53 34.6659 135.644 34.3706 136.875 34.3706C138.124 34.3706 139.229 34.6575 140.191 35.2312C141.17 35.7881 141.938 36.5812 142.495 37.6106C143.052 38.6231 143.33 39.7959 143.33 41.129C143.33 41.2134 143.322 41.3062 143.305 41.4075C143.305 41.4919 143.305 41.5847 143.305 41.6859H131.737V40.3444H142.343L141.634 40.8759C141.634 39.914 141.423 39.0619 141.001 38.3194C140.596 37.56 140.039 36.9694 139.331 36.5475C138.622 36.1256 137.804 35.9147 136.875 35.9147C135.964 35.9147 135.146 36.1256 134.42 36.5475C133.694 36.9694 133.129 37.56 132.724 38.3194C132.319 39.0787 132.117 39.9478 132.117 40.9265V41.205C132.117 42.2175 132.336 43.1119 132.775 43.8881C133.23 44.6475 133.855 45.2465 134.648 45.6853C135.458 46.1072 136.378 46.3181 137.407 46.3181C138.217 46.3181 138.968 46.1747 139.66 45.8878C140.369 45.6009 140.976 45.1622 141.482 44.5715L142.495 45.7359C141.904 46.4447 141.162 46.9847 140.267 47.3559C139.39 47.7272 138.419 47.9128 137.356 47.9128Z" fill="black"/>
<path d="M118.471 44.3433L118.521 42.0398L126.798 34.4967H129.001L123.153 40.0908L122.141 40.9514L118.471 44.3433ZM117.053 47.7858V29.0039H118.85V47.7858H117.053ZM127.355 47.7858L121.812 40.8755L122.976 39.4833L129.557 47.7858H127.355Z" fill="black"/>
<path d="M107.091 47.7862V34.4972H108.813V38.1169L108.635 37.484C109.007 36.4715 109.631 35.7037 110.508 35.1806C111.386 34.6406 112.474 34.3706 113.774 34.3706V36.1172C113.706 36.1172 113.639 36.1172 113.571 36.1172C113.504 36.1003 113.436 36.0919 113.369 36.0919C111.968 36.0919 110.871 36.5222 110.078 37.3828C109.285 38.2265 108.888 39.4331 108.888 41.0025V47.7862H107.091Z" fill="black"/>
<path d="M100.489 47.7862V44.85L100.413 44.369V39.4584C100.413 38.3278 100.093 37.4587 99.4514 36.8512C98.827 36.2437 97.8904 35.94 96.6417 35.94C95.781 35.94 94.9626 36.0834 94.1864 36.3703C93.4101 36.6572 92.752 37.0369 92.212 37.5094L91.402 36.1678C92.077 35.594 92.887 35.1553 93.832 34.8515C94.777 34.5309 95.7726 34.3706 96.8189 34.3706C98.5401 34.3706 99.8648 34.8009 100.793 35.6615C101.738 36.5053 102.21 37.7962 102.21 39.5344V47.7862H100.489ZM95.9076 47.9128C94.912 47.9128 94.0429 47.7525 93.3004 47.4319C92.5748 47.0944 92.0179 46.6387 91.6298 46.065C91.2417 45.4744 91.0476 44.7994 91.0476 44.04C91.0476 43.3481 91.2079 42.7237 91.5285 42.1669C91.866 41.5931 92.406 41.1375 93.1485 40.8C93.9079 40.4456 94.9204 40.2684 96.186 40.2684H100.768V41.61H96.2367C94.9542 41.61 94.0598 41.8378 93.5535 42.2934C93.0642 42.749 92.8195 43.3144 92.8195 43.9894C92.8195 44.7487 93.1148 45.3562 93.7054 45.8119C94.296 46.2675 95.1229 46.4953 96.186 46.4953C97.1985 46.4953 98.0676 46.2675 98.7932 45.8119C99.5357 45.3394 100.076 44.6644 100.413 43.7869L100.818 45.0272C100.481 45.9047 99.8901 46.605 99.0464 47.1281C98.2195 47.6512 97.1732 47.9128 95.9076 47.9128Z" fill="black"/>
<path d="M68.3652 47.7861V30.0674H69.9093L78.0093 43.888H77.1993L85.2234 30.0674H86.7674V47.7861H84.9702V32.8771H85.4005L78.0093 45.5333H77.1234L69.6815 32.8771H70.1624V47.7861H68.3652Z" fill="black"/>
<path d="M177.53 6.44238H182.542V24.1611H177.53V6.44238ZM170.696 24.1611H165.684V6.44238H170.696V24.1611ZM177.885 17.2508H170.342V13.0996H177.885V17.2508Z" fill="black"/>
<path d="M155.522 24.5154C154.07 24.5154 152.67 24.3382 151.32 23.9838C149.987 23.6126 148.898 23.1401 148.054 22.5663L149.7 18.8707C150.493 19.377 151.404 19.7988 152.433 20.1363C153.48 20.457 154.517 20.6173 155.547 20.6173C156.239 20.6173 156.796 20.5582 157.217 20.4401C157.639 20.3051 157.943 20.1363 158.129 19.9338C158.331 19.7145 158.432 19.4613 158.432 19.1745C158.432 18.7695 158.247 18.4488 157.876 18.2126C157.504 17.9763 157.023 17.7823 156.433 17.6304C155.842 17.4785 155.184 17.3266 154.458 17.1748C153.75 17.0229 153.032 16.8288 152.307 16.5926C151.598 16.3563 150.948 16.0526 150.358 15.6813C149.767 15.2932 149.286 14.7954 148.915 14.1879C148.544 13.5635 148.358 12.7788 148.358 11.8338C148.358 10.7707 148.645 9.80883 149.219 8.9482C149.809 8.08758 150.687 7.3957 151.851 6.87258C153.016 6.34945 154.467 6.08789 156.205 6.08789C157.369 6.08789 158.508 6.22289 159.622 6.49289C160.753 6.74602 161.757 7.1257 162.634 7.63195L161.09 11.3529C160.247 10.8973 159.411 10.5598 158.584 10.3404C157.757 10.1041 156.956 9.98602 156.18 9.98602C155.488 9.98602 154.931 10.062 154.509 10.2138C154.087 10.3488 153.783 10.5345 153.598 10.7707C153.412 11.007 153.319 11.277 153.319 11.5807C153.319 11.9688 153.497 12.281 153.851 12.5173C154.222 12.7366 154.703 12.9223 155.294 13.0741C155.901 13.2091 156.559 13.3526 157.268 13.5045C157.994 13.6563 158.711 13.8504 159.42 14.0866C160.145 14.306 160.803 14.6098 161.394 14.9979C161.985 15.3691 162.457 15.867 162.812 16.4913C163.183 17.0988 163.368 17.8666 163.368 18.7948C163.368 19.8241 163.073 20.7776 162.482 21.6551C161.909 22.5157 161.04 23.2076 159.875 23.7307C158.728 24.2538 157.277 24.5154 155.522 24.5154Z" fill="black"/>
<path d="M140.718 24.1611V6.44238H145.73V24.1611H140.718Z" fill="black"/>
<path d="M126.164 20.2377L125.885 14.6183L133.505 6.44238H139.023L131.429 14.6689L128.645 17.5799L126.164 20.2377ZM121.684 24.1611V6.44238H126.645V24.1611H121.684ZM133.58 24.1611L127.809 16.8458L131.075 13.3527L139.402 24.1611H133.58Z" fill="black"/>
<path d="M102.947 24.1611V6.44238H111.047C112.667 6.44238 114.059 6.70395 115.223 7.22707C116.404 7.7502 117.316 8.50957 117.957 9.5052C118.598 10.4839 118.919 11.6483 118.919 12.9983C118.919 14.3314 118.598 15.4874 117.957 16.4661C117.316 17.428 116.404 18.1705 115.223 18.6936C114.059 19.1999 112.667 19.453 111.047 19.453H105.731L107.959 17.3521V24.1611H102.947ZM113.907 24.1611L109.503 17.7064H114.844L119.273 24.1611H113.907ZM107.959 17.8836L105.731 15.5802H110.743C111.789 15.5802 112.565 15.3524 113.072 14.8968C113.595 14.4411 113.856 13.8083 113.856 12.9983C113.856 12.1714 113.595 11.5302 113.072 11.0746C112.565 10.6189 111.789 10.3911 110.743 10.3911H105.731L107.959 8.0877V17.8836Z" fill="black"/>
<path d="M91.2231 24.5155C88.6075 24.5155 86.5656 23.7983 85.0975 22.3639C83.6293 20.9296 82.8953 18.8961 82.8953 16.2636V6.44238H87.9071V16.1118C87.9071 17.6305 88.2025 18.7189 88.7931 19.3771C89.4006 20.0352 90.2275 20.3643 91.2737 20.3643C92.32 20.3643 93.1384 20.0352 93.729 19.3771C94.3196 18.7189 94.615 17.6305 94.615 16.1118V6.44238H99.5509V16.2636C99.5509 18.8961 98.8168 20.9296 97.3487 22.3639C95.8806 23.7983 93.8387 24.5155 91.2231 24.5155Z" fill="black"/>
<path d="M71.0232 24.1611V10.4164H65.5811V6.44238H81.452V10.4164H76.0351V24.1611H71.0232Z" fill="black"/>
<defs>
<clipPath id="clip0_28474_3078">
<path d="M0 12.8C0 8.31958 0 6.07937 0.871948 4.36808C1.63893 2.86278 2.86278 1.63893 4.36808 0.871948C6.07937 0 8.31958 0 12.8 0H39.2C43.6804 0 45.9206 0 47.6319 0.871948C49.1372 1.63893 50.3611 2.86278 51.1281 4.36808C52 6.07937 52 8.31958 52 12.8V39.2C52 43.6804 52 45.9206 51.1281 47.6319C50.3611 49.1372 49.1372 50.3611 47.6319 51.1281C45.9206 52 43.6804 52 39.2 52H12.8C8.31958 52 6.07937 52 4.36808 51.1281C2.86278 50.3611 1.63893 49.1372 0.871948 47.6319C0 45.9206 0 43.6804 0 39.2V12.8Z" fill="white"/>
</clipPath>
</defs>
</svg>
