<svg width="20" height="20" viewBox="0 0 20 20" fill="none" xmlns="http://www.w3.org/2000/svg">
<g clip-path="url(#clip0_28421_28223)">
<path d="M9.99996 1.66675C12.0844 3.94871 13.2689 6.91011 13.3333 10.0001C13.2689 13.0901 12.0844 16.0515 9.99996 18.3334M9.99996 1.66675C7.91556 3.94871 6.731 6.91011 6.66663 10.0001C6.731 13.0901 7.91556 16.0515 9.99996 18.3334M9.99996 1.66675C5.39759 1.66675 1.66663 5.39771 1.66663 10.0001C1.66663 14.6025 5.39759 18.3334 9.99996 18.3334M9.99996 1.66675C14.6023 1.66675 18.3333 5.39771 18.3333 10.0001C18.3333 14.6025 14.6023 18.3334 9.99996 18.3334M2.08331 7.50008H17.9166M2.08329 12.5001H17.9166" stroke="#667085" stroke-width="1.8" stroke-linecap="round" stroke-linejoin="round"/>
</g>
<defs>
<clipPath id="clip0_28421_28223">
<rect width="20" height="20" fill="white"/>
</clipPath>
</defs>
</svg>
