<svg width="65" height="64" viewBox="0 0 65 64" fill="none" xmlns="http://www.w3.org/2000/svg">
<path d="M12.5 0.5H52.5C58.8513 0.5 64 5.64873 64 12V52C64 58.3513 58.8513 63.5 52.5 63.5H12.5C6.14873 63.5 1 58.3513 1 52V12C1 5.64873 6.14873 0.5 12.5 0.5Z" fill="white"/>
<path d="M12.5 0.5H52.5C58.8513 0.5 64 5.64873 64 12V52C64 58.3513 58.8513 63.5 52.5 63.5H12.5C6.14873 63.5 1 58.3513 1 52V12C1 5.64873 6.14873 0.5 12.5 0.5Z" stroke="#EAECF0"/>
<path d="M15.8334 23.6665L29.4416 33.1922C30.5435 33.9636 31.0945 34.3493 31.6938 34.4987C32.2232 34.6306 32.7769 34.6306 33.3063 34.4987C33.9056 34.3493 34.4566 33.9636 35.5585 33.1922L49.1667 23.6665M23.8334 45.3332H41.1667C43.967 45.3332 45.3671 45.3332 46.4367 44.7882C47.3775 44.3088 48.1424 43.5439 48.6217 42.6031C49.1667 41.5336 49.1667 40.1334 49.1667 37.3332V26.6665C49.1667 23.8662 49.1667 22.4661 48.6217 21.3966C48.1424 20.4557 47.3775 19.6908 46.4367 19.2115C45.3671 18.6665 43.967 18.6665 41.1667 18.6665H23.8334C21.0331 18.6665 19.633 18.6665 18.5634 19.2115C17.6226 19.6908 16.8577 20.4557 16.3783 21.3966C15.8334 22.4661 15.8334 23.8662 15.8334 26.6665V37.3332C15.8334 40.1334 15.8334 41.5336 16.3783 42.6031C16.8577 43.5439 17.6226 44.3088 18.5634 44.7882C19.633 45.3332 21.0331 45.3332 23.8334 45.3332Z" stroke="#344054" stroke-width="2" stroke-linecap="round" stroke-linejoin="round"/>
</svg>
